<mxfile host="app.diagrams.net" modified="2023-11-21T14:02:47.922Z" agent="Mozilla/5.0 (Macintosh; Intel Mac OS X 10_15_7) AppleWebKit/537.36 (KHTML, like Gecko) Chrome/118.0.0.0 Safari/537.36" version="22.1.3" etag="qJETnlma3yKKC2_pmBZB" type="github">
  <diagram name="Pagina-1" id="RP7KV6aXgqFmq6-9loz_">
    <mxGraphModel>
      <root>
        <mxCell id="0" />
        <mxCell id="1" parent="0" />
      </root>
    </mxGraphModel>
  </diagram>
</mxfile>
